<svg width="48" height="48" viewBox="0 0 48 48" fill="none" xmlns="http://www.w3.org/2000/svg">
<path d="M24 18C27.312 18 30 20.688 30 24C30 27.312 27.312 30 24 30C20.688 30 18 27.312 18 24C18 20.688 20.688 18 24 18ZM24 14.4C18.696 14.4 14.4 18.696 14.4 24C14.4 29.304 18.696 33.6 24 33.6C29.304 33.6 33.6 29.304 33.6 24C33.6 18.696 29.304 14.4 24 14.4ZM9 25.8C9.984 25.8 10.8 24.984 10.8 24C10.8 23.016 9.984 22.2 9 22.2H4.2C3.216 22.2 2.4 23.016 2.4 24C2.4 24.984 3.216 25.8 4.2 25.8H9ZM43.8 25.8C44.784 25.8 45.6 24.984 45.6 24C45.6 23.016 44.784 22.2 43.8 22.2H39C38.016 22.2 37.2 23.016 37.2 24C37.2 24.984 38.016 25.8 39 25.8H43.8ZM22.2 9C22.2 9.984 23.016 10.8 24 10.8C24.984 10.8 25.8 9.984 25.8 9V4.2C25.8 3.216 24.984 2.4 24 2.4C23.016 2.4 22.2 3.216 22.2 4.2V9ZM33.336 12.12C32.64 12.816 32.64 13.968 33.336 14.664C34.032 15.36 35.184 15.36 35.88 14.664L38.424 12.12C39.12 11.424 39.12 10.272 38.424 9.576C37.728 8.88 36.576 8.88 35.88 9.576L33.336 12.12ZM9.576 35.88C8.88 36.576 8.88 37.728 9.576 38.424C10.272 39.12 11.424 39.12 12.12 38.424L14.664 35.88C15.36 35.184 15.36 34.032 14.664 33.336C13.968 32.64 12.816 32.64 12.12 33.336L9.576 35.88ZM12.12 14.664C12.816 15.36 13.968 15.36 14.664 14.664C15.36 13.968 15.36 12.816 14.664 12.12L12.12 9.576C11.424 8.88 10.272 8.88 9.576 9.576C8.88 10.272 8.88 11.424 9.576 12.12L12.12 14.664ZM35.88 38.424C36.576 39.12 37.728 39.12 38.424 38.424C39.12 37.728 39.12 36.576 38.424 35.88L35.88 33.336C35.184 32.64 34.032 32.64 33.336 33.336C32.64 34.032 32.64 35.184 33.336 35.88L35.88 38.424ZM22.2 43.8C22.2 44.784 23.016 45.6 24 45.6C24.984 45.6 25.8 44.784 25.8 43.8V39C25.8 38.016 24.984 37.2 24 37.2C23.016 37.2 22.2 38.016 22.2 39V43.8Z" fill="#AA0601"/>
</svg>
